HIERARCHY
ROOT hip
{
  OFFSET 0 0 0
  CHANNELS 6 Xposition Yposition Zposition Zrotation Yrotation Xrotation
  JOINT abdomen
  {
    OFFSET 0 20.6881 -0.73152
    CHANNELS 3 Zrotation Xrotation Yrotation
    JOINT chest
    {
      OFFSET 0 11.7043 -0.48768
      CHANNELS 3 Zrotation Xrotation Yrotation
      JOINT neck
      {
        OFFSET 0 22.1894 -2.19456
        CHANNELS 3 Zrotation Xrotation Yrotation
        JOINT head
        {
          OFFSET -0.24384 7.07133 1.2192
          CHANNELS 3 Zrotation Xrotation Yrotation
          JOINT leftEye
          {
            OFFSET 4.14528 8.04674 8.04672
            CHANNELS 3 Zrotation Xrotation Yrotation
            End Site
            {
              OFFSET 1 0 0
            }
          }
          JOINT rightEye
          {
            OFFSET -3.6576 8.04674 8.04672
            CHANNELS 3 Zrotation Xrotation Yrotation
            End Site
            {
              OFFSET 1 0 0
            }
          }
        }
      }
      JOINT rCollar
      {
        OFFSET -2.68224 19.2634 -4.8768
        CHANNELS 3 Zrotation Xrotation Yrotation
        JOINT rShldr
        {
          OFFSET -8.77824 -1.95073 1.46304
          CHANNELS 3 Zrotation Xrotation Yrotation
          JOINT rForeArm
          {
            OFFSET -28.1742 -1.7115 0.48768
            CHANNELS 3 Zrotation Xrotation Yrotation
            JOINT rHand
            {
              OFFSET -22.5879 0.773209 7.07136
              CHANNELS 3 Zrotation Xrotation Yrotation
              JOINT rThumb1
              {
                OFFSET -1.2192 -0.487915 3.41376
                CHANNELS 3 Zrotation Xrotation Yrotation
                JOINT rThumb2
                {
                  OFFSET -3.37035 -0.52449 3.41376
                  CHANNELS 3 Zrotation Xrotation Yrotation
                  End Site
                  {
                    OFFSET -1.78271 -1.18214 1.43049
                  }
                }
              }
              JOINT rIndex1
              {
                OFFSET -7.75947 0.938293 5.60832
                CHANNELS 3 Zrotation Xrotation Yrotation
                JOINT rIndex2
                {
                  OFFSET -2.54057 -0.884171 1.56538
                  CHANNELS 3 Zrotation Xrotation Yrotation
                  End Site
                  {
                    OFFSET -1.62519 -0.234802 1.16502
                  }
                }
              }
              JOINT rMid1
              {
                OFFSET -8.24714 1.18213 3.41376
                CHANNELS 3 Zrotation Xrotation Yrotation
                JOINT rMid2
                {
                  OFFSET -3.10165 -0.590103 1.0647
                  CHANNELS 3 Zrotation Xrotation Yrotation
                  End Site
                  {
                    OFFSET -2.48547 -0.328903 0.83742
                  }
                }
              }
              JOINT rRing1
              {
                OFFSET -8.82822 0.546677 1.51678
                CHANNELS 3 Zrotation Xrotation Yrotation
                JOINT rRing2
                {
                  OFFSET -2.60934 -0.819778 -0.0198488
                  CHANNELS 3 Zrotation Xrotation Yrotation
                  End Site
                  {
                    OFFSET -2.33842 -0.294052 0.168128
                  }
                }
              }
              JOINT rPinky1
              {
                OFFSET -8.27202 -0.0477905 -0.4584
                CHANNELS 3 Zrotation Xrotation Yrotation
                JOINT rPinky2
                {
                  OFFSET -1.82734 -0.647385 -0.700984
                  CHANNELS 3 Zrotation Xrotation Yrotation
                  End Site
                  {
                    OFFSET -1.69225 -0.51767 -0.607171
                  }
                }
              }
            }
          }
        }
      }
      JOINT lCollar
      {
        OFFSET 2.68224 19.2634 -4.8768
        CHANNELS 3 Zrotation Xrotation Yrotation
        JOINT lShldr
        {
          OFFSET 8.77824 -1.95073 1.46304
          CHANNELS 3 Zrotation Xrotation Yrotation
          JOINT lForeArm
          {
            OFFSET 28.1742 -1.7115 0.48768
            CHANNELS 3 Zrotation Xrotation Yrotation
            JOINT lHand
            {
              OFFSET 22.5879 0.773209 7.07136
              CHANNELS 3 Zrotation Xrotation Yrotation
              JOINT lThumb1
              {
                OFFSET 1.2192 -0.487915 3.41376
                CHANNELS 3 Zrotation Xrotation Yrotation
                JOINT lThumb2
                {
                  OFFSET 3.37035 -0.52449 3.41376
                  CHANNELS 3 Zrotation Xrotation Yrotation
                  End Site
                  {
                    OFFSET 1.78271 -1.18214 1.43049
                  }
                }
              }
              JOINT lIndex1
              {
                OFFSET 7.75947 0.938293 5.60832
                CHANNELS 3 Zrotation Xrotation Yrotation
                JOINT lIndex2
                {
                  OFFSET 2.54057 -0.884171 1.56538
                  CHANNELS 3 Zrotation Xrotation Yrotation
                  End Site
                  {
                    OFFSET 1.62519 -0.234802 1.16502
                  }
                }
              }
              JOINT lMid1
              {
                OFFSET 8.24714 1.18213 3.41376
                CHANNELS 3 Zrotation Xrotation Yrotation
                JOINT lMid2
                {
                  OFFSET 3.10165 -0.590103 1.0647
                  CHANNELS 3 Zrotation Xrotation Yrotation
                  End Site
                  {
                    OFFSET 2.48547 -0.328903 0.83742
                  }
                }
              }
              JOINT lRing1
              {
                OFFSET 8.82822 0.546677 1.51678
                CHANNELS 3 Zrotation Xrotation Yrotation
                JOINT lRing2
                {
                  OFFSET 2.60934 -0.819778 -0.0198488
                  CHANNELS 3 Zrotation Xrotation Yrotation
                  End Site
                  {
                    OFFSET 2.33842 -0.294052 0.168128
                  }
                }
              }
              JOINT lPinky1
              {
                OFFSET 8.27202 -0.0477905 -0.4584
                CHANNELS 3 Zrotation Xrotation Yrotation
                JOINT lPinky2
                {
                  OFFSET 1.82734 -0.647385 -0.700984
                  CHANNELS 3 Zrotation Xrotation Yrotation
                  End Site
                  {
                    OFFSET 1.69225 -0.51767 -0.607171
                  }
                }
              }
            }
          }
        }
      }
    }
  }
  JOINT rButtock
  {
    OFFSET -8.77824 4.35084 1.2192
    CHANNELS 3 Zrotation Xrotation Yrotation
    JOINT rThigh
    {
      OFFSET 0 -1.70687 -2.19456
      CHANNELS 3 Zrotation Xrotation Yrotation
      JOINT rShin
      {
        OFFSET 0 -36.8199 0.73152
        CHANNELS 3 Zrotation Xrotation Yrotation
        JOINT rFoot
        {
          OFFSET 0.73152 -45.1104 -5.12064
          CHANNELS 3 Zrotation Xrotation Yrotation
          End Site
          {
            OFFSET -1.1221 -3.69964 12.103
          }
        }
      }
    }
  }
  JOINT lButtock
  {
    OFFSET 8.77824 4.35084 1.2192
    CHANNELS 3 Zrotation Xrotation Yrotation
    JOINT lThigh
    {
      OFFSET 0 -1.70687 -2.19456
      CHANNELS 3 Zrotation Xrotation Yrotation
      JOINT lShin
      {
        OFFSET 0 -36.8199 0.73152
        CHANNELS 3 Zrotation Xrotation Yrotation
        JOINT lFoot
        {
          OFFSET -0.73152 -45.1104 -5.12064
          CHANNELS 3 Zrotation Xrotation Yrotation
          End Site
          {
            OFFSET 1.1221 -3.69964 12.103
          }
        }
      }
    }
  }
}
MOTION
Frames:	6
Frame Time:	0.00833333
-16.4998 82.0421 25.708 -480.757 -83.2555 489.705 5.23442 -3.07271 6.94085 -0.436778 -0.980139 1.80912 -6.93797 -2.8883 -4.24314 11.0524 -7.69911 -5.51358 -0.0 0.0 0.0 -0.0 0.0 0.0 -2.34035e-13 -5.96603e-12 -1.38944e-13 80.2929 -17.6336 -11.1106 -6.74768 -2.3871 11.829 -4.55245 50.1902 9.70563 8.5954e-09 3.26678e-09 -1.72973e-09 1.47238e-08 5.73465e-09 -3.3144e-09 8.59541e-09 3.26677e-09 -1.72975e-09 7.73091 5.47488 0.417314 8.59541e-09 3.26677e-09 -1.72974e-09 2.90554 0.965183 0.102902 8.59541e-09 3.26677e-09 -1.72974e-09 10.2786 0.731801 0.0259123 8.59539e-09 3.26678e-09 -1.72973e-09 2.22167 -0.733487 -0.20892 -2.34116e-13 -5.96603e-12 -1.39218e-13 -80.7475 1.50333 8.62643 11.9508 -5.41419 -21.5146 1.68148 34.1499 -5.47043 -2.45276e-09 5.27173e-09 7.14158e-09 -4.04774e-09 9.06017e-09 1.23882e-08 -2.45276e-09 5.27173e-09 7.1416e-09 -7.73091 5.47488 -0.417314 -2.45276e-09 5.27173e-09 7.14159e-09 -2.90554 0.965183 -0.102902 -2.45276e-09 5.27173e-09 7.14159e-09 -10.2786 0.731801 -0.0259123 -2.45276e-09 5.27174e-09 7.14158e-09 -2.22167 -0.733487 0.20892 -2.03217e-16 0.0 -3.88251e-19 5.67781 -9.70737 -2.49131 -0.278103 34.6575 0.435185 -0.996366 -2.04441 -5.02634 2.03217e-16 0.0 3.88251e-19 5.50915 -33.2499 -4.49163 0.075555 21.1406 0.15447 0.661493 1.4026 7.51757
-17.3412 82.0415 25.7858 -483.619 -83.3112 492.449 4.96031 -2.9497 6.62263 -0.366774 -0.990623 1.72069 -6.72458 -2.88508 -4.02421 10.8407 -7.65699 -5.16628 -0.0 0.0 0.0 -0.0 0.0 0.0 -1.92409e-13 -4.65801e-12 -1.63649e-13 79.4896 -19.1387 -12.4774 -6.65573 -2.34412 11.6627 -4.80394 51.0978 10.0298 7.49919e-09 2.85137e-09 -1.50305e-09 1.28416e-08 5.00812e-09 -2.88689e-09 7.4992e-09 2.85137e-09 -1.50306e-09 7.73091 5.47488 0.417314 7.4992e-09 2.85136e-09 -1.50305e-09 2.90554 0.965183 0.102902 7.4992e-09 2.85136e-09 -1.50305e-09 10.2786 0.731801 0.0259123 7.49918e-09 2.85137e-09 -1.50305e-09 2.22167 -0.733487 -0.20892 -1.92451e-13 -4.65801e-12 -1.63948e-13 -80.5553 1.08721 8.65337 11.847 -5.34194 -21.3141 1.72433 34.517 -5.54643 -2.08843e-09 4.57732e-09 6.2236e-09 -3.44217e-09 7.86565e-09 1.07947e-08 -2.08843e-09 4.57732e-09 6.22362e-09 -7.73091 5.47488 -0.417314 -2.08843e-09 4.57732e-09 6.2236e-09 -2.90554 0.965183 -0.102902 -2.08843e-09 4.57732e-09 6.2236e-09 -10.2786 0.731801 -0.0259123 -2.08842e-09 4.57732e-09 6.22359e-09 -2.22167 -0.733487 0.20892 -2.03217e-16 0.0 -3.88251e-19 5.12634 -10.4026 -2.62028 -0.303049 36.2088 0.464573 -0.950217 -1.26837 -5.18986 2.03217e-16 0.0 3.88251e-19 5.09778 -32.8194 -4.44624 0.0758961 21.4804 0.149174 0.680823 1.19528 7.42681
-18.1834 82.0452 25.8643 -486.51 -83.358 495.215 4.68175 -2.82198 6.29274 -0.294899 -1.00318 1.62902 -6.50902 -2.87755 -3.80207 10.6261 -7.61165 -4.81421 -0.0 0.0 0.0 -0.0 0.0 0.0 -1.1965e-13 4.63908e-15 -1.75561e-13 78.6798 -20.2282 -13.7639 -6.59254 -2.31401 11.5495 -4.96427 51.6408 10.2326 5.4803e-09 2.19497e-09 -1.34763e-09 9.37238e-09 3.8429e-09 -2.53982e-09 5.48031e-09 2.19496e-09 -1.34764e-09 7.73091 5.47488 0.417314 5.48031e-09 2.19496e-09 -1.34764e-09 2.90554 0.965183 0.102902 5.48031e-09 2.19496e-09 -1.34764e-09 10.2786 0.731801 0.0259123 5.48029e-09 2.19497e-09 -1.34763e-09 2.22167 -0.733487 -0.20892 -1.19667e-13 4.63843e-15 -1.75875e-13 -80.3508 0.660471 8.66407 11.7411 -5.26878 -21.1097 1.76922 34.8948 -5.62534 -1.57934e-09 3.23931e-09 4.35883e-09 -2.61311e-09 5.57036e-09 7.56344e-09 -1.57935e-09 3.23931e-09 4.35884e-09 -7.73091 5.47488 -0.417314 -1.57934e-09 3.23931e-09 4.35883e-09 -2.90554 0.965183 -0.102902 -1.57935e-09 3.23931e-09 4.35883e-09 -10.2786 0.731801 -0.0259123 -1.57934e-09 3.23931e-09 4.35882e-09 -2.22167 -0.733487 0.20892 -2.03217e-16 0.0 -3.88251e-19 4.56856 -11.1414 -2.75371 -0.330252 37.7685 0.495926 -0.904028 -0.489618 -5.39812 2.03217e-16 0.0 3.88251e-19 4.68544 -32.3563 -4.39389 0.0761661 21.8072 0.142447 0.702133 0.969046 7.33775
-19.0244 82.055 25.9417 -489.416 -83.3958 497.989 4.39861 -2.689 5.9506 -0.221378 -1.01785 1.53394 -6.29065 -2.8658 -3.57619 10.4081 -7.56295 -4.45665 -0.0 0.0 0.0 -0.0 0.0 0.0 -1.96197e-14 7.06224e-12 -1.8067e-13 77.885 -20.9568 -14.9691 -6.56506 -2.30115 11.5 -5.03309 51.8736 10.3199 2.67472e-09 1.30805e-09 -1.19115e-09 4.55141e-09 2.26312e-09 -2.15642e-09 2.67472e-09 1.30805e-09 -1.19116e-09 7.73091 5.47488 0.417314 2.67472e-09 1.30805e-09 -1.19115e-09 2.90554 0.965183 0.102902 2.67472e-09 1.30805e-09 -1.19115e-09 10.2786 0.731801 0.0259123 2.67471e-09 1.30805e-09 -1.19114e-09 2.22167 -0.733487 -0.20892 -1.96136e-14 7.06224e-12 -1.80997e-13 -80.1338 0.221438 8.66012 11.6325 -5.19428 -20.9006 1.81644 35.2843 -5.70749 -9.04474e-10 1.36159e-09 1.72457e-09 -1.519e-09 2.35064e-09 2.99985e-09 -9.04481e-10 1.36158e-09 1.72458e-09 -7.73091 5.47488 -0.417314 -9.04475e-10 1.36158e-09 1.72458e-09 -2.90554 0.965183 -0.102902 -9.04477e-10 1.36158e-09 1.72457e-09 -10.2786 0.731801 -0.0259123 -9.04468e-10 1.36159e-09 1.72456e-09 -2.22167 -0.733487 0.20892 -2.03217e-16 0.0 -3.88251e-19 4.00185 -11.9241 -2.89181 -0.360088 39.3436 0.529675 -0.85504 0.299187 -5.65165 2.03217e-16 0.0 3.88251e-19 4.27083 -31.8613 -4.33269 0.0764301 22.1291 0.134179 0.725817 0.72046 7.24899
-19.8655 82.0705 26.0192 -492.323 -83.4223 500.759 4.11464 -2.5529 5.6005 -0.146098 -1.03424 1.43668 -6.07134 -2.85029 -3.34873 10.1866 -7.51253 -4.09687 -0.0 0.0 0.0 -0.0 0.0 0.0 7.59593e-14 1.29592e-11 -1.61404e-13 77.1238 -21.3935 -16.0804 -6.56277 -2.30031 11.4956 -5.02136 51.8419 10.3061 -4.98779e-11 4.49075e-10 -1.0279e-09 -1.29048e-10 7.34779e-10 -1.76393e-09 -4.98769e-11 4.49077e-10 -1.02791e-09 7.73091 5.47488 0.417314 -4.98797e-11 4.49076e-10 -1.02791e-09 2.90554 0.965183 0.102902 -4.98798e-11 4.49073e-10 -1.02791e-09 10.2786 0.731801 0.0259123 -4.98846e-11 4.49077e-10 -1.0279e-09 2.22167 -0.733487 -0.20892 7.59812e-14 1.29592e-11 -1.6174e-13 -79.9072 -0.219109 8.63732 11.5234 -5.11999 -20.691 1.86515 35.6779 -5.79137 -3.04894e-10 -4.29285e-10 -8.27935e-10 -5.52484e-10 -7.19031e-10 -1.42045e-09 -3.04902e-10 -4.2929e-10 -8.27926e-10 -7.73091 5.47488 -0.417314 -3.04895e-10 -4.29288e-10 -8.27931e-10 -2.90554 0.965183 -0.102902 -3.04897e-10 -4.29289e-10 -8.27936e-10 -10.2786 0.731801 -0.0259123 -3.04888e-10 -4.29286e-10 -8.27944e-10 -2.22167 -0.733487 0.20892 -2.03217e-16 0.0 -3.88251e-19 3.43376 -12.7445 -3.03402 -0.392282 40.9077 0.565332 -0.803811 1.07338 -5.94082 2.03217e-16 0.0 3.88251e-19 3.85776 -31.3371 -4.26768 0.07649 22.4299 0.124719 0.751742 0.451501 7.16582
-20.7035 82.0904 26.0951 -495.215 -83.4383 503.512 3.83346 -2.41586 5.24673 -0.0689445 -1.05197 1.33843 -5.85297 -2.8315 -3.12182 9.96159 -7.46206 -3.73809 -0.0 0.0 0.0 -0.0 0.0 0.0 1.35363e-13 1.41398e-11 -1.00187e-13 76.4068 -21.6066 -17.0892 -6.5751 -2.30626 11.5175 -4.94495 51.5912 10.2104 -1.82579e-09 -1.23504e-10 -8.5222e-10 -3.1767e-09 -2.7611e-10 -1.38959e-09 -1.82579e-09 -1.235e-10 -8.5223e-10 7.73091 5.47488 0.417314 -1.82579e-09 -1.23501e-10 -8.52226e-10 2.90554 0.965183 0.102902 -1.82579e-09 -1.23504e-10 -8.52226e-10 10.2786 0.731801 0.0259123 -1.82579e-09 -1.23501e-10 -8.52214e-10 2.22167 -0.733487 -0.20892 1.3539e-13 1.41398e-11 -1.00535e-13 -79.6742 -0.650407 8.5914 11.416 -5.04743 -20.4852 1.91442 36.0685 -5.87542 -2.16723e-11 -1.50673e-09 -2.44746e-09 -1.06229e-10 -2.56417e-09 -4.22189e-09 -2.16818e-11 -1.50674e-09 -2.44745e-09 -7.73091 5.47488 -0.417314 -2.16748e-11 -1.50674e-09 -2.44745e-09 -2.90554 0.965183 -0.102902 -2.16766e-11 -1.50674e-09 -2.44746e-09 -10.2786 0.731801 -0.0259123 -2.16669e-11 -1.50673e-09 -2.44747e-09 -2.22167 -0.733487 0.20892 -2.03217e-16 0.0 -3.88251e-19 2.8719 -13.5963 -3.17981 -0.426396 42.4345 0.602283 -0.751939 1.80839 -6.25591 2.03217e-16 0.0 3.88251e-19 3.45023 -30.7866 -4.20374 0.0761258 22.6934 0.114423 0.779895 0.164162 7.09355
